G04 (created by PCBNEW (2013-may-18)-stable) date Wed 08 Oct 2014 11:37:39 BST*
%MOIN*%
G04 Gerber Fmt 3.4, Leading zero omitted, Abs format*
%FSLAX34Y34*%
G01*
G70*
G90*
G04 APERTURE LIST*
%ADD10C,0.00590551*%
%ADD11R,0.02X0.045*%
%ADD12R,0.055X0.035*%
%ADD13R,0.035X0.055*%
%ADD14R,0.0709X0.0629*%
%ADD15R,0.055X0.055*%
%ADD16C,0.055*%
%ADD17R,0.06X0.06*%
%ADD18C,0.06*%
%ADD19C,0.16*%
G04 APERTURE END LIST*
G54D10*
G54D11*
X150100Y-100100D03*
X150600Y-100100D03*
X151100Y-100100D03*
X151600Y-100100D03*
X152100Y-100100D03*
X152600Y-100100D03*
X153100Y-100100D03*
X153100Y-97600D03*
X152600Y-97600D03*
X151600Y-97600D03*
X151100Y-97600D03*
X150600Y-97600D03*
X150100Y-97600D03*
X152100Y-97600D03*
G54D12*
X151400Y-91425D03*
X151400Y-92175D03*
X155800Y-96575D03*
X155800Y-95825D03*
G54D13*
X150775Y-102000D03*
X150025Y-102000D03*
G54D12*
X148400Y-91425D03*
X148400Y-92175D03*
X157000Y-91425D03*
X157000Y-92175D03*
X154000Y-91425D03*
X154000Y-92175D03*
X156400Y-102025D03*
X156400Y-102775D03*
X154600Y-96575D03*
X154600Y-95825D03*
G54D14*
X147400Y-92059D03*
X147400Y-90941D03*
X155900Y-92059D03*
X155900Y-90941D03*
X153000Y-92059D03*
X153000Y-90941D03*
X150300Y-92059D03*
X150300Y-90941D03*
G54D15*
X157600Y-95700D03*
G54D16*
X157600Y-96700D03*
X157600Y-97700D03*
G54D17*
X150100Y-104500D03*
G54D18*
X150100Y-103500D03*
X151100Y-104500D03*
X151100Y-103500D03*
X152100Y-104500D03*
X152100Y-103500D03*
X153100Y-104500D03*
X153100Y-103500D03*
G54D13*
X148225Y-99800D03*
X148975Y-99800D03*
X148975Y-97800D03*
X148225Y-97800D03*
X148225Y-98800D03*
X148975Y-98800D03*
G54D19*
X157200Y-104200D03*
X145800Y-104200D03*
X145800Y-88800D03*
X157200Y-88800D03*
M02*
