M48
INCH,TZ
T1C0.025
T2C0.032
T3C0.040
T4C0.120
%
G90
G05
T1
X147200Y-97400
X150000Y-98800
X150600Y-99500
X151000Y-96200
X152000Y-96800
X152000Y-99000
X152600Y-101200
X153000Y-99200
X153200Y-101200
X153600Y-95000
X154600Y-95000
X154600Y-98800
X156400Y-101000
T2
X157600Y-95700
X157600Y-96700
X157600Y-97700
T3
X150100Y-103500
X150100Y-104500
X151100Y-103500
X151100Y-104500
X152100Y-103500
X152100Y-104500
X153100Y-103500
X153100Y-104500
T4
X145800Y-88800
X145800Y-104200
X157200Y-88800
X157200Y-104200
T0
M30
